<svg width="128" height="37" viewBox="0 0 128 37" fill="none" xmlns="http://www.w3.org/2000/svg">
<g clip-path="url(#clip0_141_1584)">
<path d="M26.925 3.42491V3.3565C26.925 2.74082 26.4072 2.22548 25.7784 2.22548H20.6977C20.0735 2.22548 19.5511 2.73626 19.5511 3.3565V3.42491C19.5511 4.04059 20.0689 4.55593 20.6977 4.55593H25.2052C26.3702 4.55593 27.4058 5.04848 28.1224 5.82834C28.1778 5.88306 28.2102 5.93323 28.2657 5.98796C28.8205 6.65836 29.1579 7.52487 29.1579 8.45979C29.1579 10.6124 27.3873 12.3591 25.2052 12.3591H21.2894C19.1073 12.3591 17.3367 10.6124 17.3367 8.45979H19.5742C19.5742 9.39471 20.3417 10.1518 21.2894 10.1518H25.2052C26.1529 10.1518 26.9388 9.39471 26.9388 8.45979C26.9388 7.52487 26.1529 6.76782 25.2052 6.76782H20.6977C19.7869 6.76782 18.964 6.41665 18.3537 5.8329C18.1919 5.67328 18.0486 5.49541 17.9238 5.30387C17.5493 4.77484 17.332 4.12268 17.332 3.41579V3.34282C17.332 1.50946 18.8345 0.0090332 20.693 0.0090332H25.7738C27.6323 0.0090332 29.1533 1.50946 29.1533 3.34282V3.41579L26.9157 3.43403L26.925 3.42491Z" fill="#211E52"/>
<path d="M55.9904 0V12.3546H53.7528V6.69037H45.704V12.3546H43.4664V0H45.704V4.48305H53.7528V0H55.9904Z" fill="#211E52"/>
<path d="M82.393 6.17503C82.393 9.58178 79.5868 12.3501 76.1333 12.3501C72.6799 12.3501 69.8737 9.57722 69.8737 6.17503C69.8737 2.77283 72.6799 0 76.1333 0C79.5868 0 82.393 2.77283 82.393 6.17503ZM80.1555 6.17503C80.1555 3.98595 78.3478 2.20276 76.1287 2.20276C73.9096 2.20276 72.102 3.98595 72.102 6.17503C72.102 8.36411 73.9096 10.1473 76.1287 10.1473C78.3478 10.1473 80.1555 8.36411 80.1555 6.17503Z" fill="#211E52"/>
<path d="M107.672 9.68668L106.868 12.3501L105.222 10.0926L102.735 6.7223L100.266 10.0926L98.6202 12.3318L97.8157 9.68668L94.8986 0H97.224L99.4801 7.44743L101.376 4.85246L101.732 4.35992L102.753 2.98262L103.775 4.35992L104.131 4.85246L106.026 7.44743L108.282 0H110.608L107.672 9.68668Z" fill="#211E52"/>
<path d="M19.1166 18.0874V36.9454H15.7047V24.9283L12.3437 27.4594L9.55597 29.5892L6.76823 27.4594L3.40723 24.9283V36.9454H0V18.0874L3.41185 20.6733L9.55597 25.3342L15.7001 20.6733L19.1119 18.0874H19.1166Z" fill="#211E52"/>
<path d="M41.6219 36.9454H37.7985L36.051 33.5797L31.8717 25.4983L27.6924 33.5797L25.9449 36.9454H22.1216L23.8691 33.5797L31.8717 18.0874L39.8743 33.5797L41.6219 36.9454Z" fill="#211E52"/>
<path d="M57.7889 23.3137V23.2043C57.7889 22.2603 56.9983 21.4804 56.0413 21.4804H48.2838C47.3268 21.4804 46.5362 22.2603 46.5362 23.2043V23.3137C46.5362 24.2578 47.3268 25.0377 48.2838 25.0377H55.1676C56.9428 25.0377 58.5286 25.7901 59.6196 26.9759C59.7028 27.058 59.7583 27.1355 59.8369 27.2176C60.6829 28.2437 61.2007 29.5617 61.2007 30.9892C61.2007 34.2774 58.4962 36.9453 55.163 36.9453H49.1806C45.8474 36.9453 43.1429 34.2774 43.1429 30.9892H46.5547C46.5547 32.4167 47.729 33.5751 49.176 33.5751H55.1583C56.6054 33.5751 57.8074 32.4167 57.8074 30.9892C57.8074 29.5617 56.6054 28.4034 55.1583 28.4034H48.2745C46.883 28.4034 45.6255 27.8652 44.6962 26.9759C44.4512 26.7342 44.2339 26.4651 44.0398 26.1687C43.4665 25.3615 43.1382 24.3627 43.1382 23.2864V23.1769C43.1382 20.3767 45.4313 18.0828 48.2745 18.0828H56.0321C58.8707 18.0828 61.1961 20.3722 61.1961 23.1769V23.2864L57.7843 23.3137H57.7889Z" fill="#211E52"/>
<path d="M83.4841 18.1147V21.4805H75.6479V36.9728H72.2361V21.4805H64.3999V18.1147H83.4887H83.4841Z" fill="#211E52"/>
<path d="M91.0244 23.1815V24.9328H103.313V28.2985H91.0244V31.8557C91.0244 32.7998 91.8149 33.5796 92.7719 33.5796H106.729V36.9453H92.7719C89.9333 36.9453 87.6356 34.6559 87.6356 31.8512V23.1769C87.6356 20.3767 89.9287 18.0828 92.7719 18.0828H106.729V21.4485H92.7719C91.8149 21.4485 91.0244 22.2283 91.0244 23.1724V23.1815Z" fill="#211E52"/>
<path d="M126.252 33.6345L128 37.0002H124.177L122.429 33.6345L120.598 30.1046L120.515 29.945C119.914 28.9736 118.851 28.3305 117.621 28.3305H114.209V37.0047H110.797V18.1467H122.868C124.288 18.1467 125.573 18.7122 126.502 19.6289C127.431 20.5456 128.005 21.8089 128.005 23.2135C128.005 25.2612 126.775 27.0399 125 27.8471C124.537 28.0614 124.043 28.1983 123.525 28.253L126.257 33.639L126.252 33.6345ZM122.864 24.9602C123.109 24.9602 123.354 24.9055 123.576 24.8006C124.204 24.5315 124.611 23.9113 124.611 23.2363C124.611 22.6161 124.283 22.1874 124.093 21.9959C123.876 21.7815 123.465 21.5124 122.864 21.5124H114.205V24.9876L122.864 24.9602Z" fill="#211E52"/>
</g>
<defs>
<clipPath id="clip0_141_1584">
<rect width="128" height="37" fill="white"/>
</clipPath>
</defs>
</svg>
