<svg width="24" height="24" viewBox="0 0 24 24" fill="none" xmlns="http://www.w3.org/2000/svg">
<g clip-path="url(#clip0_393_1932)">
<path d="M11.1428 18.8571H12.8571M17.1428 8.5714V5.14283M9.42856 8.5714V2.5714H4.28571V8.5714M20.5714 2.99997C20.5714 3.28138 20.516 3.56003 20.4083 3.82001C20.3006 4.07999 20.1428 4.31622 19.9438 4.5152C19.7448 4.71419 19.5086 4.87203 19.2486 4.97972C18.9886 5.0874 18.71 5.14283 18.4286 5.14283H15.8571C15.2888 5.14283 14.7438 4.91707 14.3419 4.5152C13.94 4.11334 13.7143 3.56829 13.7143 2.99997C13.7143 2.43165 13.94 1.88661 14.3419 1.48475C14.7438 1.08288 15.2888 0.857117 15.8571 0.857117H18.4286C18.71 0.857117 18.9886 0.912543 19.2486 1.02023C19.5086 1.12792 19.7448 1.28576 19.9438 1.48475C20.1428 1.68373 20.3006 1.91995 20.4083 2.17994C20.516 2.43992 20.5714 2.71857 20.5714 2.99997Z" stroke="#ABABAB" stroke-width="2" stroke-linecap="round" stroke-linejoin="round"/>
<path d="M21.4285 14.5714H2.5714C1.62463 14.5714 0.857117 15.3389 0.857117 16.2857V21.4286C0.857117 22.3753 1.62463 23.1428 2.5714 23.1428H21.4285C22.3753 23.1428 23.1428 22.3753 23.1428 21.4286V16.2857C23.1428 15.3389 22.3753 14.5714 21.4285 14.5714Z" stroke="#ABABAB" stroke-width="2" stroke-linecap="round" stroke-linejoin="round"/>
<path d="M21.4286 14.5714V10.2857C21.4286 9.83104 21.2479 9.39501 20.9265 9.07351C20.605 8.75202 20.1689 8.57141 19.7143 8.57141H4.2857C3.83104 8.57141 3.395 8.75202 3.07351 9.07351C2.75202 9.39501 2.57141 9.83104 2.57141 10.2857V14.5714" stroke="#ABABAB" stroke-width="2" stroke-linecap="round" stroke-linejoin="round"/>
</g>
<defs>
<clipPath id="clip0_393_1932">
<rect width="24" height="24" fill="white"/>
</clipPath>
</defs>
</svg>
